<svg width="1420" height="1080" viewBox="0 0 1420 1080" fill="none" xmlns="http://www.w3.org/2000/svg">
<rect x="656.135" y="594.644" width="143.89" height="36.1609" fill="white"/>
<rect x="764.138" y="450" width="36.0924" height="36.0924" fill="white"/>
<rect x="619.974" y="450" width="36.1609" height="144.644" fill="white"/>
<rect x="764.138" y="522.185" width="36.0924" height="36.0924" fill="white"/>
<rect x="728.046" y="486.093" width="36.0924" height="36.0924" fill="white"/>
<rect x="691.954" y="450" width="36.0924" height="36.0924" fill="white"/>
<rect x="366.848" y="486.161" width="36.1609" height="108.483" fill="white"/>
<rect x="150.636" y="450" width="144.644" height="36.1609" fill="white"/>
<rect x="1016.99" y="450" width="36.1609" height="144.644" fill="white"/>
<rect x="511.492" y="486.161" width="36.1609" height="108.483" fill="white"/>
<rect x="872.347" y="450" width="36.1609" height="144.644" fill="white"/>
<rect x="439.307" y="522.185" width="36.0924" height="36.0924" fill="white"/>
<rect x="114.475" y="486.093" width="36.0924" height="36.0924" fill="white"/>
<rect x="150.636" y="522.322" width="108.483" height="36.1609" fill="white"/>
<rect x="908.508" y="594.37" width="36.0924" height="36.0924" fill="white"/>
<path fill-rule="evenodd" clip-rule="evenodd" d="M1160.88 450H1124.72V486.161V630.805H1160.88V486.161H1269.36V450H1160.88Z" fill="white"/>
<rect x="1269.36" y="486.161" width="36.1609" height="72.3218" fill="white"/>
<rect x="980.693" y="594.37" width="36.0924" height="36.0924" fill="white"/>
<rect x="403.009" y="450" width="108.483" height="36.1609" fill="white"/>
<rect x="1197.04" y="558.483" width="72.3218" height="36.1609" fill="white"/>
<rect x="114.475" y="594.644" width="144.644" height="36.1609" fill="white"/>
<rect x="944.669" y="486.161" width="36.1609" height="108.483" fill="white"/>
<rect x="1269.43" y="594.37" width="36.0924" height="36.0924" fill="white"/>
<rect x="258.845" y="558.278" width="36.0924" height="36.0924" fill="white"/>
<rect x="403.009" y="594.644" width="108.483" height="36.1609" fill="white"/>
</svg>
